<svg xmlns="http://www.w3.org/2000/svg" width="512" height="512" viewBox="0 0 512 512" role="img" aria-labelledby="title desc">
  <title id="title">Chat Carryover Memory Spark Logo</title>
  <desc id="desc">A chat bubble shaped like a memory chip with bright spark marks.</desc>
  <defs>
    <linearGradient id="chip" x1="105" y1="92" x2="406" y2="404" gradientUnits="userSpaceOnUse">
      <stop stop-color="#FFF06A"/>
      <stop offset=".45" stop-color="#20E3A2"/>
      <stop offset="1" stop-color="#7C5CFF"/>
    </linearGradient>
  </defs>
  <rect width="512" height="512" rx="98" fill="#18122B"/>
  <path d="M109 152c0-31 25-56 56-56h183c31 0 56 25 56 56v125c0 31-25 56-56 56h-85l-86 79v-79h-12c-31 0-56-25-56-56z" fill="url(#chip)"/>
  <path d="M154 97V63M207 97V63M260 97V63M313 97V63M367 97V63M154 449v-34M207 449v-34M260 449v-34M313 449v-34M367 449v-34M109 173H75M109 226H75M109 279H75M437 173h-34M437 226h-34M437 279h-34" stroke="#FEF8D6" stroke-width="14" stroke-linecap="round"/>
  <path d="M178 181h154M178 226h111" stroke="#18122B" stroke-width="20" stroke-linecap="round"/>
  <path d="M352 108 366 76l14 32 32 14-32 14-14 32-14-32-32-14zM106 363l10-23 10 23 23 10-23 10-10 23-10-23-23-10z" fill="#FF4FA3"/>
  <circle cx="364" cy="283" r="26" fill="#18122B"/>
  <path d="M350 283h28m0 0-11-11m11 11-11 11" stroke="#FFFFFF" stroke-width="9" stroke-linecap="round" stroke-linejoin="round"/>
</svg>
