<svg xmlns="http://www.w3.org/2000/svg" width="512" height="512" viewBox="0 0 512 512" role="img" aria-labelledby="title desc">
  <title id="title">Chat Carryover Portal Bubbles Logo</title>
  <desc id="desc">Two chat bubbles connected through a vivid portal ring.</desc>
  <defs>
    <linearGradient id="left" x1="78" y1="119" x2="284" y2="338" gradientUnits="userSpaceOnUse">
      <stop stop-color="#00D8FF"/>
      <stop offset="1" stop-color="#0B7CFF"/>
    </linearGradient>
    <linearGradient id="right" x1="238" y1="153" x2="433" y2="372" gradientUnits="userSpaceOnUse">
      <stop stop-color="#FFDD55"/>
      <stop offset="1" stop-color="#FF4F8B"/>
    </linearGradient>
  </defs>
  <rect width="512" height="512" rx="104" fill="#0D1020"/>
  <path d="M119 169c0-34 28-62 62-62h86c34 0 62 28 62 62v71c0 34-28 62-62 62h-42l-70 61v-61h-16c-11 0-20-9-20-20z" fill="url(#left)"/>
  <path d="M198 303c0-34 28-62 62-62h76c34 0 62 28 62 62v62c0 34-28 62-62 62h-20v52l-61-52h-35c-12 0-22-10-22-22z" fill="url(#right)"/>
  <circle cx="260" cy="257" r="79" fill="none" stroke="#FFFFFF" stroke-width="20" stroke-dasharray="34 17" stroke-linecap="round"/>
  <circle cx="260" cy="257" r="44" fill="#0D1020"/>
  <path d="M236 257h50m0 0-19-19m19 19-19 19" stroke="#B7FF5A" stroke-width="16" stroke-linecap="round" stroke-linejoin="round"/>
  <path d="M164 172h92M164 211h55M259 322h86M259 358h54" stroke="#FFFFFF" stroke-width="17" stroke-linecap="round" opacity=".78"/>
</svg>
